HIERARCHY
ROOT Hips
{
 OFFSET 0.000000 0.000000 0.000000
 CHANNELS 6 Xposition Yposition Zposition Yrotation Xrotation Zrotation
 JOINT Chest
 {
  OFFSET 0.000000 9.585900 0.002600
  CHANNELS 3 Yrotation Xrotation Zrotation
  JOINT Chest2
  {
   OFFSET 0.000000 9.601200 -0.005300
   CHANNELS 3 Yrotation Xrotation Zrotation
   JOINT Chest3
   {
    OFFSET 0.000000 9.561800 0.000000
    CHANNELS 3 Yrotation Xrotation Zrotation
    JOINT Chest4
    {
     OFFSET 0.000000 9.552100 0.000000
     CHANNELS 3 Yrotation Xrotation Zrotation
     JOINT Neck
     {
      OFFSET 0.000000 14.453000 0.000000
      CHANNELS 3 Yrotation Xrotation Zrotation
      JOINT Head
      {
       OFFSET 0.000000 8.936500 -0.011300
       CHANNELS 3 Yrotation Xrotation Zrotation
       End Site
       {
        OFFSET 0.000000 17.073600 -0.006000
       }
      }
     }
     JOINT RightCollar
     {
      OFFSET -2.921100 9.558500 0.000000
      CHANNELS 3 Yrotation Xrotation Zrotation
      JOINT RightShoulder
      {
       OFFSET -13.519700 0.000000 0.000000
       CHANNELS 3 Yrotation Xrotation Zrotation
       JOINT RightElbow
       {
        OFFSET 0.000000 -29.696600 0.000000
        CHANNELS 3 Yrotation Xrotation Zrotation
        JOINT RightWrist
        {
         OFFSET 0.000000 -24.004700 0.000000
         CHANNELS 3 Yrotation Xrotation Zrotation
         End Site
         {
          OFFSET 0.000000 -17.728500 0.000000
         }
        }
       }
      }
     }
     JOINT LeftCollar
     {
      OFFSET 2.921100 9.558500 0.000000
      CHANNELS 3 Yrotation Xrotation Zrotation
      JOINT LeftShoulder
      {
       OFFSET 13.519700 0.000000 0.000000
       CHANNELS 3 Yrotation Xrotation Zrotation
       JOINT LeftElbow
       {
        OFFSET 0.000000 -29.696600 0.000000
        CHANNELS 3 Yrotation Xrotation Zrotation
        JOINT LeftWrist
        {
         OFFSET 0.000000 -24.004700 0.000000
         CHANNELS 3 Yrotation Xrotation Zrotation
         End Site
         {
          OFFSET 0.000000 -17.728500 0.000000
         }
        }
       }
      }
     }
    }
   }
  }
 }
 JOINT RightHip
 {
  OFFSET -7.771700 -0.012900 -0.001300
  CHANNELS 3 Yrotation Xrotation Zrotation
  JOINT RightKnee
  {
   OFFSET 0.000000 -40.869800 0.001200
   CHANNELS 3 Yrotation Xrotation Zrotation
   JOINT RightAnkle
   {
    OFFSET 0.000000 -39.717900 0.002100
    CHANNELS 3 Yrotation Xrotation Zrotation
    JOINT RightToe
    {
     OFFSET 0.000000 -4.965400 11.033500
     CHANNELS 3 Yrotation Xrotation Zrotation
     End Site
     {
      OFFSET 0.000000 -1.423100 5.872300
     }
    }
   }
  }
 }
 JOINT LeftHip
 {
  OFFSET 7.771700 -0.012900 -0.001300
  CHANNELS 3 Yrotation Xrotation Zrotation
  JOINT LeftKnee
  {
   OFFSET 0.000000 -40.869800 0.001200
   CHANNELS 3 Yrotation Xrotation Zrotation
   JOINT LeftAnkle
   {
    OFFSET 0.000000 -39.717900 0.002100
    CHANNELS 3 Yrotation Xrotation Zrotation
    JOINT LeftToe
    {
     OFFSET 0.000000 -4.965400 11.033500
     CHANNELS 3 Yrotation Xrotation Zrotation
     End Site
     {
      OFFSET 0.000000 -1.423100 5.872300
     }
    }
   }
  }
 }
}
MOTION
Frames: 13
Frame Time: 0.008333
0.000000 85.388000 0.000000 0.000000 -5.767877 0.000000 0.000000 11.653817 0.000000 0.000000 -5.885947 0.000000 0.000000 -0.000000 0.000000 0.000000 -0.000000 0.000000 0.000000 12.528835 0.000000 0.000000 0.711642 0.000000 0.000000 -0.000000 0.000000 0.000000 0.000000 -90.000000 0.000000 -2.309062 0.000000 0.000000 2.309062 0.000000 0.000000 -0.000000 0.000000 0.000000 -0.000000 90.000000 0.000000 -2.309062 0.000000 0.000000 2.309062 0.000000 0.000000 8.520406 0.000000 0.000000 1.905762 0.000000 -0.000000 -4.658285 0.000000 0.000000 -0.000000 0.000000 0.000000 8.520406 0.000000 0.000000 1.905762 0.000000 -0.000000 -4.658285 0.000000 0.000000 -0.000000 0.000000
-36.688180 43.828220 35.300419 178.279238 -21.529131 -0.373059 -1.760171 16.508499 2.715148 -0.229691 1.716271 0.374911 -0.382034 2.860239 0.615146 -1.653921 14.532356 2.966487 5.410490 15.463083 -8.183132 7.981213 -8.983974 -10.415797 10.245792 -2.012427 -6.518110 -19.056773 -22.818084 -16.666957 -136.699801 -47.926340 160.629271 -5.262658 6.706951 5.386754 -16.919390 -2.939875 -2.291881 29.769699 -13.342428 5.810291 136.901251 -47.141022 -164.718146 10.920367 9.660572 0.148371 -4.538737 -71.327884 11.468042 -153.154744 70.632546 -152.451869 -12.869801 -23.992686 8.643644 0.275357 -0.961841 0.162817 4.847751 -60.584268 -8.158960 173.773453 63.874007 174.036433 -1.457539 -34.374937 2.969392 0.128729 0.419520 0.067722
-36.688089 43.828083 35.298347 178.291733 -21.564985 -0.362971 -1.771137 16.551310 2.707351 -0.230804 1.724342 0.374455 -0.384133 2.867702 0.613189 -1.656033 14.558429 2.959220 5.188042 15.438378 -8.316672 7.763343 -9.015177 -10.509793 10.309890 -2.004304 -6.527461 -19.200567 -23.042320 -16.718756 -136.187786 -47.523340 160.376415 -5.607561 6.403337 6.211395 -16.902503 -2.919691 -2.307988 29.915622 -13.469497 5.749450 136.396466 -46.718991 -164.637411 11.054507 9.356834 -0.059604 -4.493103 -71.298442 11.424245 -153.169999 70.620856 -152.469128 -12.900751 -23.998382 8.656734 0.300015 -0.954032 0.163462 4.853233 -60.546726 -8.171854 173.784463 63.876316 174.042627 -1.460960 -34.372734 2.961058 0.128862 0.415459 0.073778
-36.688205 43.827327 35.297775 178.297314 -21.596976 -0.346013 -1.777242 16.589332 2.693949 -0.234079 1.725770 0.370140 -0.384718 2.876319 0.612874 -1.656348 14.593462 2.950426 4.934859 15.412845 -8.450300 7.510544 -9.048702 -10.595200 10.345683 -2.025977 -6.530071 -19.315205 -23.227067 -16.765811 -135.621700 -47.124799 160.087721 -5.974398 6.110677 7.088431 -16.885213 -2.895638 -2.321118 30.059627 -13.593634 5.681068 135.875159 -46.318928 -164.545281 11.205810 9.061592 -0.311021 -4.435689 -71.270088 11.365955 -153.191733 70.616250 -152.491272 -12.927980 -24.017220 8.671242 0.314344 -0.932350 0.153726 4.868933 -60.513490 -8.190954 173.798961 63.879145 174.049374 -1.463590 -34.369427 2.961331 0.128338 0.412976 0.074728
-36.686794 43.826022 35.298887 178.303288 -21.624307 -0.335952 -1.785866 16.617806 2.680903 -0.234442 1.726839 0.369869 -0.384867 2.879260 0.612725 -1.656667 14.644363 2.941271 4.655744 15.386297 -8.584674 7.228731 -9.084300 -10.674443 10.387031 -2.050183 -6.531638 -19.442788 -23.396103 -16.796180 -135.011579 -46.728368 159.774298 -6.353523 5.833649 8.015342 -16.865506 -2.870916 -2.335309 30.208948 -13.714744 5.603593 135.325920 -45.936525 -164.442066 11.363409 8.779485 -0.600442 -4.404008 -71.246154 11.334314 -153.216915 70.613922 -152.518444 -12.944239 -24.034763 8.682154 0.272671 -0.920177 0.140194 4.865983 -60.487495 -8.190243 173.820188 63.881645 174.060265 -1.464297 -34.368941 2.962681 0.128065 0.414498 0.073306
-36.684148 43.825370 35.298881 178.306340 -21.664958 -0.330437 -1.787586 16.663623 2.675956 -0.235204 1.734832 0.369629 -0.385969 2.892046 0.612458 -1.658985 14.679870 2.931437 4.355342 15.359229 -8.720564 6.923582 -9.121024 -10.749819 10.469340 -2.040805 -6.536816 -19.626637 -23.581288 -16.795545 -134.333770 -46.350015 159.419095 -6.721146 5.553163 8.992102 -16.843536 -2.845786 -2.354616 30.367235 -13.835537 5.515995 134.752953 -45.571022 -164.331854 11.517080 8.514760 -0.919050 -4.407055 -71.212872 11.357437 -153.202987 70.604299 -152.520033 -12.978478 -24.026853 8.695408 0.300899 -0.933126 0.142143 4.842762 -60.448052 -8.165915 173.848009 63.883705 174.073871 -1.466042 -34.369083 2.965209 0.128954 0.415308 0.072329
-36.683393 43.824858 35.299262 178.300508 -21.708731 -0.310167 -1.786235 16.711571 2.659192 -0.235890 1.743632 0.369461 -0.387548 2.937857 0.615638 -1.659853 14.685936 2.919508 4.037668 15.333893 -8.858747 6.599881 -9.155920 -10.823401 10.618655 -1.945425 -6.536330 -19.897664 -23.828549 -16.757288 -133.609054 -45.994532 159.030746 -7.074289 5.275264 10.010547 -16.823558 -2.816931 -2.380649 30.535076 -13.957756 5.418180 134.180476 -45.226399 -164.222322 11.665440 8.259363 -1.261783 -4.353548 -71.175823 11.313763 -153.192136 70.599485 -152.515449 -12.982926 -24.024173 8.698013 0.304294 -0.937218 0.142002 4.837186 -60.403166 -8.153731 173.854778 63.888505 174.060256 -1.482487 -34.364308 2.974061 0.130123 0.413029 0.070252
-36.682047 43.823645 35.302381 178.302041 -21.741093 -0.297692 -1.788804 16.753274 2.651894 -0.237098 1.760172 0.370057 -0.388548 2.940533 0.612857 -1.660757 14.723880 2.910351 3.708079 15.312681 -8.998722 6.263779 -9.185935 -10.896322 10.730367 -1.883357 -6.530475 -20.121721 -24.032008 -16.716475 -132.906524 -45.653878 158.655968 -7.433496 5.023581 11.050139 -16.811480 -2.779345 -2.412814 30.714577 -14.080576 5.308917 133.628311 -44.907647 -164.119105 11.805015 7.993950 -1.634764 -4.317041 -71.147719 11.277527 -153.185093 70.598580 -152.509945 -12.980436 -24.027852 8.699017 0.312824 -0.936247 0.138421 4.823296 -60.373247 -8.139769 173.859968 63.892705 174.049497 -1.494590 -34.360845 2.977187 0.130990 0.414924 0.069170
-36.680886 43.823415 35.304136 178.302523 -21.788491 -0.285539 -1.790983 16.801326 2.640515 -0.238199 1.772008 0.371897 -0.389354 2.941420 0.610713 -1.661826 14.779250 2.901990 3.374989 15.295330 -9.137817 5.924252 -9.211180 -10.967879 10.825649 -1.836476 -6.520524 -20.321491 -24.208715 -16.664911 -132.243354 -45.339468 158.303796 -7.798577 4.787222 12.102457 -16.809326 -2.732345 -2.447790 30.907372 -14.198783 5.186483 133.108683 -44.615379 -164.029026 11.932366 7.702560 -2.051184 -4.278538 -71.104793 11.237704 -153.189576 70.598376 -152.518597 -12.952657 -24.024063 8.682798 0.302049 -0.946581 0.143094 4.826366 -60.324839 -8.141533 173.849533 63.897420 174.033368 -1.501982 -34.355898 2.978515 0.127877 0.414431 0.066670
-36.680566 43.824217 35.304447 178.267186 -21.851605 -0.257349 -1.762346 16.861561 2.625456 -0.241170 1.782537 0.371486 -0.387611 2.946890 0.610116 -1.666088 14.837409 2.891582 3.046702 15.279431 -9.273888 5.589970 -9.234093 -11.037890 10.928042 -1.779556 -6.503200 -20.519616 -24.381403 -16.598615 -131.615227 -45.056086 157.957999 -8.154019 4.556362 13.180112 -16.814806 -2.677941 -2.484390 31.105409 -14.307220 5.053631 132.631058 -44.346792 -163.949761 12.042335 7.377968 -2.525633 -4.199953 -71.048786 11.194904 -153.163488 70.603747 -152.501947 -12.946133 -23.998463 8.681282 0.296382 -0.958713 0.140868 4.823342 -60.258126 -8.113024 173.871225 63.901940 174.027187 -1.500553 -34.346403 2.987506 0.124158 0.403828 0.056350
-36.681674 43.825807 35.303855 178.256071 -21.926602 -0.231927 -1.761389 16.933038 2.601335 -0.240367 1.789211 0.371284 -0.390456 2.970808 0.610398 -1.671066 14.883353 2.880322 2.729007 15.262541 -9.405305 5.266852 -9.257184 -11.106097 11.036708 -1.713470 -6.480359 -20.719433 -24.547318 -16.517403 -131.033448 -44.790382 157.618884 -8.498137 4.341901 14.297120 -16.825544 -2.614048 -2.525178 31.297483 -14.407331 4.911865 132.201061 -44.102011 -163.872661 12.129275 7.016096 -3.069879 -4.126185 -70.982032 11.134534 -153.143969 70.598965 -152.488305 -12.954214 -23.976157 8.679021 0.319479 -0.972161 0.144987 4.748679 -60.178187 -8.047638 173.906955 63.912972 174.010351 -1.506205 -34.351322 2.991054 0.128772 0.413154 0.053571
-36.680416 43.827176 35.304872 178.251409 -21.998061 -0.225266 -1.764554 16.990127 2.597962 -0.237209 1.806690 0.366949 -0.394063 2.994622 0.611561 -1.672215 14.893487 2.872921 2.416759 15.281861 -9.531959 4.960282 -9.280590 -11.170948 11.142315 -1.602086 -6.447864 -20.923679 -24.707482 -16.421809 -130.468551 -44.550812 157.264056 -8.817528 4.129678 15.463912 -16.848749 -2.506659 -2.585292 31.482536 -14.503347 4.761419 131.814281 -43.884426 -163.788306 12.196662 6.614750 -3.696029 -4.109917 -70.914876 11.125511 -153.123738 70.597690 -152.477206 -12.931156 -23.948895 8.657817 0.330426 -0.991361 0.158583 4.721942 -60.104354 -8.019784 173.916731 63.920008 174.007281 -1.502616 -34.348480 2.991842 0.126782 0.414219 0.050226
-36.680336 43.827707 35.308597 178.229432 -22.057960 -0.206678 -1.748981 17.047094 2.585824 -0.242158 1.812440 0.369863 -0.396643 3.016028 0.611360 -1.685600 14.963540 2.853711 2.141157 15.246361 -9.645549 4.675968 -9.302539 -11.230687 11.270023 -1.538057 -6.411831 -21.123377 -24.864144 -16.313006 -129.896982 -44.349784 156.874734 -9.096927 3.908666 16.684187 -16.861960 -2.445809 -2.627629 31.662236 -14.600759 4.604659 131.474633 -43.702881 -163.688569 12.258211 6.174682 -4.421562 -4.058075 -70.864610 11.097854 -153.105551 70.602526 -152.472878 -12.911020 -23.910877 8.647038 0.323052 -1.012936 0.166749 4.721011 -60.041419 -8.004099 173.932153 63.928740 174.008403 -1.498247 -34.344050 2.991063 0.125466 0.414312 0.048865
